<svg width="41" height="35" viewBox="0 0 41 35" fill="none" xmlns="http://www.w3.org/2000/svg">
<path d="M27.3239 12.4824C25.7993 12.0864 23.7531 11.7829 21.3994 12.0469C20.7307 12.1129 20.1155 12.2317 19.5939 12.3373C19.5538 12.2053 19.5003 12.0865 19.4201 11.9809C17.2134 9.18245 14.4451 7.00445 11.4092 5.71085C11.1953 5.61845 10.9679 5.52605 10.7138 5.42045C10.7138 5.39405 10.7272 5.36765 10.7272 5.35445C10.8877 4.50965 11.4627 1.43405 13.8834 0.36485C15.0201 -0.13675 16.09 -0.00475017 16.7587 0.0876498C19.6875 0.48365 21.5866 2.56925 22.924 4.07405C25.5185 6.96485 26.7355 10.1592 27.3239 12.4824Z" fill="white"/>
<path d="M18.1763 13.248C18.1496 13.248 18.1362 13.2613 18.1094 13.2613C18.1094 13.2613 18.1094 13.2613 18.0961 13.2613C16.5046 13.7893 14.4049 14.6077 12.3186 15.9013C11.7971 16.2181 10.5934 17.01 9.34968 18.0924C8.69436 18.66 8.02568 19.3069 7.79833 19.5313C7.39712 19.9273 7.06278 20.2704 6.80868 20.5344C6.31385 20.2044 6.07312 20.0461 5.93939 19.9669C5.91264 19.9537 5.85914 19.9141 5.76553 19.8481C5.76553 19.8481 5.60504 19.7424 5.44456 19.6237C5.21721 19.4653 4.49503 18.8581 4.21418 18.5809C0.964376 15.5449 0.282318 12.6804 0.282318 12.6804C0.0950861 11.796 -0.586972 8.60165 1.21848 6.62165C2.06102 5.69765 3.10417 5.40725 3.75948 5.23565C3.85309 5.20925 3.96008 5.18285 4.0537 5.16965C4.14731 5.14325 4.2543 5.13005 4.34792 5.11685C4.54852 5.07725 4.73575 5.06405 4.93636 5.03765C5.02998 5.02445 5.12359 5.02445 5.23058 5.02445C5.5248 5.01125 5.80565 5.02445 6.0865 5.03765C7.18314 5.11685 8.21291 5.43365 9.12232 5.80325C9.22931 5.84285 9.32293 5.88245 9.41654 5.93525C9.61715 6.01445 9.80438 6.10685 9.99161 6.19925C10.1253 6.26525 10.2591 6.33125 10.3928 6.39725C10.4731 6.43685 10.5399 6.47645 10.6202 6.51605C10.7539 6.58205 10.8876 6.66125 11.0214 6.72725C14.6189 8.58845 16.8924 11.334 18.1763 13.248Z" fill="white"/>
<path d="M0.36261 30.1704C0.670205 30.5136 1.24527 31.0812 2.15468 31.4508C3.50543 32.0052 4.7358 31.7808 5.19051 31.6752C5.76558 32.3088 6.32727 32.6916 6.70174 32.916C7.99898 33.6816 9.29623 33.8928 10.6336 33.972C11.222 33.9984 11.7971 34.038 12.3856 34.0644C13.0944 34.0248 13.8032 33.9852 14.5253 33.9456C15.1673 33.8532 15.7958 33.7608 16.4378 33.6684C14.7393 33.246 13.5357 32.6916 12.8135 32.3088C11.9041 31.8204 11.3825 31.4112 11.1685 31.2264C10.54 30.7116 10.1655 30.2496 10.0853 30.1308C9.85793 29.8536 9.68407 29.5764 9.55033 29.3388C9.40322 29.088 9.24274 28.8108 9.109 28.428C8.96189 28.0056 8.90839 27.6624 8.8549 27.3852C8.81478 27.1344 8.78803 26.9496 8.78803 26.8308C8.74791 26.382 8.74791 26.052 8.74791 25.788C8.74791 25.4976 8.76128 25.128 8.78803 24.7056C8.8014 24.6132 8.81478 24.4944 8.82815 24.3624C8.82815 24.3624 8.8549 24.1908 8.86827 24.0324C9.109 22.4088 10.0987 20.5872 10.0987 20.5872C10.0987 20.4552 10.1388 20.3892 10.219 20.376C10.326 20.1252 10.4464 19.8612 10.5534 19.6104C9.20261 20.4288 5.73883 22.7784 4.7893 26.91C4.62882 27.6228 4.54857 28.3092 4.54857 28.9428C3.13096 29.352 1.75347 29.7612 0.36261 30.1704Z" fill="white"/>
<path d="M28.7148 29.4708C28.6346 29.5236 28.5409 29.5764 28.4607 29.6292C28.4473 29.6424 28.4206 29.6556 28.4072 29.6688C25.6255 31.332 22.3222 32.2824 19.2462 32.322C18.7648 32.1372 17.3739 31.5564 15.9964 30.2892C15.194 29.55 14.3916 28.5732 13.7898 27.306C12.5861 24.798 12.8402 21.8808 12.8804 21.4584C12.9606 20.6004 13.188 19.32 13.8031 17.8416C13.8165 17.8284 13.8299 17.8152 13.8433 17.7888C13.87 17.7624 13.8968 17.7492 13.8968 17.7492C13.9904 17.6832 14.5788 17.142 15.5016 16.5612C15.7156 16.416 16.0232 16.2444 16.3843 16.0464C16.5046 15.9804 16.6785 15.888 16.8791 15.7824C16.8791 15.7824 17.1332 15.6504 17.4007 15.5316C17.7751 15.36 18.7514 14.9772 20.0754 14.5284C19.0456 15.8088 18.6712 16.4556 18.5241 16.8252C18.5107 16.878 18.3769 17.1948 18.1897 17.67C18.0827 17.9604 17.9891 18.198 17.9222 18.33C17.2268 20.3628 17.2268 22.5804 17.9891 24.534C19.0323 27.174 21.3593 29.0616 24.1143 29.6688C25.572 29.9856 27.1501 29.946 28.7148 29.4708Z" fill="white"/>
<path d="M21.3058 18.1584C21.1185 19.6632 21.3459 21.2208 22.0012 22.6332C23.0577 24.9168 25.1173 26.5668 27.5513 27.2268C28.3938 27.4513 29.2898 27.5568 30.1993 27.5304C30.6941 27.2136 31.2424 26.7913 31.7907 26.2501C32.66 25.4185 33.2618 24.5868 33.663 23.9004C32.9409 24.0588 32.2321 24.0984 31.5366 24.0324C29.3701 23.8212 27.4443 22.5672 26.5349 20.6928C25.9999 19.5972 25.8528 18.3696 26.0668 17.1816C26.147 16.7196 26.2808 16.2708 26.4546 15.8352C26.5081 15.7164 26.5616 15.5844 26.6285 15.4656C26.8157 15.0828 27.0431 14.7132 27.3105 14.37C27.3239 14.3436 27.3507 14.3172 27.364 14.304C27.3373 14.304 27.3105 14.2908 27.2838 14.2908C25.9331 14.0532 24.4486 13.974 22.9373 14.0928C22.5228 14.6604 22.175 15.2544 21.9076 15.888C21.8273 16.086 21.7471 16.284 21.6802 16.4952C21.5064 17.0364 21.386 17.5908 21.3058 18.1584Z" fill="white"/>
<path d="M29.2498 18.3433C29.2498 18.3565 29.2632 18.3829 29.2632 18.3961C29.437 18.9901 29.7045 19.5181 30.0388 19.9933C31.1355 21.5245 32.9677 22.4089 34.8935 22.2769C35.2679 22.2505 35.6424 22.1845 36.0302 22.0789C36.2041 22.0261 36.3913 21.9733 36.5518 21.9073C36.8995 21.7753 37.2205 21.6169 37.5147 21.4189C39.494 20.1649 40.497 17.7361 39.8284 15.3865C39.5208 14.3041 38.9056 13.3933 38.1032 12.7201C38.2904 12.3241 38.5044 11.7037 38.491 10.9381C38.4642 9.67086 37.7956 7.96806 36.6454 7.78326C36.0169 7.67766 35.2278 8.04726 35.0807 8.53566C34.9336 9.02406 35.522 9.36726 35.8831 10.3045C36.0704 10.7797 36.1239 11.2417 36.1239 11.6509C35.95 11.5981 35.7895 11.5585 35.6157 11.5189C35.5755 11.2945 35.5087 11.0701 35.415 10.8325C34.9603 9.64446 33.7433 8.27166 32.5932 8.48286C31.9646 8.60166 31.3494 9.20886 31.3896 9.71046C31.4297 10.2253 32.0984 10.3441 32.7537 11.1097C32.8874 11.2681 33.0078 11.4397 33.1148 11.5981C33.088 11.5981 33.0747 11.6113 33.0479 11.6113C30.5604 12.3109 28.9556 14.5945 29.0492 17.0365C29.0625 17.4985 29.1294 17.9209 29.2498 18.3433Z" fill="white"/>
</svg>
